<?xml version="1.0" encoding="UTF-8" standalone="no"?>
<!DOCTYPE svg PUBLIC "-//W3C//DTD SVG 1.1//EN"
 "http://www.w3.org/Graphics/SVG/1.1/DTD/svg11.dtd">
<!-- Generated by graphviz version 12.2.1 (20250203.1708)
 -->
<!-- Title: snakemake_dag Pages: 1 -->
<svg width="883pt" height="836pt"
 viewBox="0.00 0.00 883.00 836.00" xmlns="http://www.w3.org/2000/svg" xmlns:xlink="http://www.w3.org/1999/xlink">
<g id="graph0" class="graph" transform="scale(1 1) rotate(0) translate(4 832)">
<title>snakemake_dag</title>
<polygon fill="white" stroke="none" points="-4,4 -4,-832 879,-832 879,4 -4,4"/>
<!-- 0 -->
<g id="node1" class="node">
<title>0</title>
<path fill="none" stroke="#5682d8" stroke-width="2" stroke-dasharray="5,2" d="M463,-36C463,-36 433,-36 433,-36 427,-36 421,-30 421,-24 421,-24 421,-12 421,-12 421,-6 427,0 433,0 433,0 463,0 463,0 469,0 475,-6 475,-12 475,-12 475,-24 475,-24 475,-30 469,-36 463,-36"/>
<text text-anchor="middle" x="448" y="-14.88" font-family="sans" font-size="10.00">all</text>
</g>
<!-- 1 -->
<g id="node2" class="node">
<title>1</title>
<path fill="none" stroke="#d8ac56" stroke-width="2" stroke-dasharray="5,2" d="M320,-756C320,-756 244,-756 244,-756 238,-756 232,-750 232,-744 232,-744 232,-732 232,-732 232,-726 238,-720 244,-720 244,-720 320,-720 320,-720 326,-720 332,-726 332,-732 332,-732 332,-744 332,-744 332,-750 326,-756 320,-756"/>
<text text-anchor="middle" x="282" y="-741.25" font-family="sans" font-size="10.00">AlignReads</text>
<text text-anchor="middle" x="282" y="-728.5" font-family="sans" font-size="10.00">sample: reads.aa</text>
</g>
<!-- 1&#45;&gt;0 -->
<g id="edge1" class="edge">
<title>1&#45;&gt;0</title>
<path fill="none" stroke="grey" stroke-width="2" d="M231.25,-728.68C182.68,-719.67 114.18,-703.89 96,-684 2.9,-582.16 38,-516.98 38,-379 38,-379 38,-379 38,-161 38,-83.33 304.03,-38.65 407.51,-24.21"/>
<polygon fill="grey" stroke="grey" stroke-width="2" points="407.71,-27.72 417.14,-22.9 406.76,-20.78 407.71,-27.72"/>
</g>
<!-- 10 -->
<g id="node11" class="node">
<title>10</title>
<path fill="none" stroke="#56d882" stroke-width="2" stroke-dasharray="5,2" d="M406.88,-396C406.88,-396 351.12,-396 351.12,-396 345.12,-396 339.12,-390 339.12,-384 339.12,-384 339.12,-372 339.12,-372 339.12,-366 345.12,-360 351.12,-360 351.12,-360 406.88,-360 406.88,-360 412.88,-360 418.88,-366 418.88,-372 418.88,-372 418.88,-384 418.88,-384 418.88,-390 412.88,-396 406.88,-396"/>
<text text-anchor="middle" x="379" y="-374.88" font-family="sans" font-size="10.00">FilterRegions</text>
</g>
<!-- 1&#45;&gt;10 -->
<g id="edge17" class="edge">
<title>1&#45;&gt;10</title>
<path fill="none" stroke="grey" stroke-width="2" d="M277.86,-719.18C272,-692.39 262,-640.06 262,-595 262,-595 262,-595 262,-521 262,-471.28 305.25,-429.52 339.16,-404.43"/>
<polygon fill="grey" stroke="grey" stroke-width="2" points="341.19,-407.28 347.31,-398.63 337.13,-401.58 341.19,-407.28"/>
</g>
<!-- 11 -->
<g id="node12" class="node">
<title>11</title>
<path fill="none" stroke="#56d8d8" stroke-width="2" stroke-dasharray="5,2" d="M369.5,-684C369.5,-684 302.5,-684 302.5,-684 296.5,-684 290.5,-678 290.5,-672 290.5,-672 290.5,-660 290.5,-660 290.5,-654 296.5,-648 302.5,-648 302.5,-648 369.5,-648 369.5,-648 375.5,-648 381.5,-654 381.5,-660 381.5,-660 381.5,-672 381.5,-672 381.5,-678 375.5,-684 369.5,-684"/>
<text text-anchor="middle" x="336" y="-662.88" font-family="sans" font-size="10.00">SortAlignments</text>
</g>
<!-- 1&#45;&gt;11 -->
<g id="edge20" class="edge">
<title>1&#45;&gt;11</title>
<path fill="none" stroke="grey" stroke-width="2" d="M295.63,-719.34C301.27,-712.01 307.97,-703.34 314.26,-695.18"/>
<polygon fill="grey" stroke="grey" stroke-width="2" points="317,-697.35 320.34,-687.3 311.46,-693.08 317,-697.35"/>
</g>
<!-- 2 -->
<g id="node3" class="node">
<title>2</title>
<path fill="none" stroke="#afd856" stroke-width="2" stroke-dasharray="5,2" d="M463.88,-828C463.88,-828 420.12,-828 420.12,-828 414.12,-828 408.12,-822 408.12,-816 408.12,-816 408.12,-804 408.12,-804 408.12,-798 414.12,-792 420.12,-792 420.12,-792 463.88,-792 463.88,-792 469.88,-792 475.88,-798 475.88,-804 475.88,-804 475.88,-816 475.88,-816 475.88,-822 469.88,-828 463.88,-828"/>
<text text-anchor="middle" x="442" y="-806.88" font-family="sans" font-size="10.00">BuildIndex</text>
</g>
<!-- 2&#45;&gt;1 -->
<g id="edge6" class="edge">
<title>2&#45;&gt;1</title>
<path fill="none" stroke="grey" stroke-width="2" d="M407.28,-793.81C386.05,-784.52 358.48,-772.46 334.61,-762.02"/>
<polygon fill="grey" stroke="grey" stroke-width="2" points="336.21,-758.9 325.65,-758.1 333.41,-765.31 336.21,-758.9"/>
</g>
<!-- 3 -->
<g id="node4" class="node">
<title>3</title>
<path fill="none" stroke="#d8ac56" stroke-width="2" stroke-dasharray="5,2" d="M168,-756C168,-756 92,-756 92,-756 86,-756 80,-750 80,-744 80,-744 80,-732 80,-732 80,-726 86,-720 92,-720 92,-720 168,-720 168,-720 174,-720 180,-726 180,-732 180,-732 180,-744 180,-744 180,-750 174,-756 168,-756"/>
<text text-anchor="middle" x="130" y="-741.25" font-family="sans" font-size="10.00">AlignReads</text>
<text text-anchor="middle" x="130" y="-728.5" font-family="sans" font-size="10.00">sample: reads.ab</text>
</g>
<!-- 2&#45;&gt;3 -->
<g id="edge7" class="edge">
<title>2&#45;&gt;3</title>
<path fill="none" stroke="grey" stroke-width="2" d="M407.42,-801.24C355.88,-789.68 258.07,-767.73 193.45,-753.23"/>
<polygon fill="grey" stroke="grey" stroke-width="2" points="194.46,-749.88 183.94,-751.1 192.93,-756.71 194.46,-749.88"/>
</g>
<!-- 4 -->
<g id="node5" class="node">
<title>4</title>
<path fill="none" stroke="#d8ac56" stroke-width="2" stroke-dasharray="5,2" d="M658.62,-756C658.62,-756 583.38,-756 583.38,-756 577.38,-756 571.38,-750 571.38,-744 571.38,-744 571.38,-732 571.38,-732 571.38,-726 577.38,-720 583.38,-720 583.38,-720 658.62,-720 658.62,-720 664.62,-720 670.62,-726 670.62,-732 670.62,-732 670.62,-744 670.62,-744 670.62,-750 664.62,-756 658.62,-756"/>
<text text-anchor="middle" x="621" y="-741.25" font-family="sans" font-size="10.00">AlignReads</text>
<text text-anchor="middle" x="621" y="-728.5" font-family="sans" font-size="10.00">sample: reads.ac</text>
</g>
<!-- 2&#45;&gt;4 -->
<g id="edge8" class="edge">
<title>2&#45;&gt;4</title>
<path fill="none" stroke="grey" stroke-width="2" d="M476.51,-795.5C501.05,-785.91 534.58,-772.79 563.17,-761.62"/>
<polygon fill="grey" stroke="grey" stroke-width="2" points="564.22,-764.96 572.26,-758.06 561.67,-758.44 564.22,-764.96"/>
</g>
<!-- 5 -->
<g id="node6" class="node">
<title>5</title>
<path fill="none" stroke="#d8ac56" stroke-width="2" stroke-dasharray="5,2" d="M793,-756C793,-756 717,-756 717,-756 711,-756 705,-750 705,-744 705,-744 705,-732 705,-732 705,-726 711,-720 717,-720 717,-720 793,-720 793,-720 799,-720 805,-726 805,-732 805,-732 805,-744 805,-744 805,-750 799,-756 793,-756"/>
<text text-anchor="middle" x="755" y="-741.25" font-family="sans" font-size="10.00">AlignReads</text>
<text text-anchor="middle" x="755" y="-728.5" font-family="sans" font-size="10.00">sample: reads.ad</text>
</g>
<!-- 2&#45;&gt;5 -->
<g id="edge9" class="edge">
<title>2&#45;&gt;5</title>
<path fill="none" stroke="grey" stroke-width="2" d="M476.69,-801.32C523.04,-791.04 607.72,-772.24 680,-756 683.79,-755.15 687.68,-754.27 691.61,-753.39"/>
<polygon fill="grey" stroke="grey" stroke-width="2" points="692.24,-756.83 701.22,-751.22 690.69,-750 692.24,-756.83"/>
</g>
<!-- 3&#45;&gt;0 -->
<g id="edge2" class="edge">
<title>3&#45;&gt;0</title>
<path fill="none" stroke="grey" stroke-width="2" d="M96.18,-719.13C57.66,-696.05 0,-651.99 0,-595 0,-595 0,-595 0,-161 0,-106.3 36.4,-97.1 85,-72 140.62,-43.28 324.82,-27.42 407.37,-21.6"/>
<polygon fill="grey" stroke="grey" stroke-width="2" points="407.41,-25.11 417.15,-20.93 406.94,-18.12 407.41,-25.11"/>
</g>
<!-- 16 -->
<g id="node17" class="node">
<title>16</title>
<path fill="none" stroke="#56d8d8" stroke-width="2" stroke-dasharray="5,2" d="M183.5,-684C183.5,-684 116.5,-684 116.5,-684 110.5,-684 104.5,-678 104.5,-672 104.5,-672 104.5,-660 104.5,-660 104.5,-654 110.5,-648 116.5,-648 116.5,-648 183.5,-648 183.5,-648 189.5,-648 195.5,-654 195.5,-660 195.5,-660 195.5,-672 195.5,-672 195.5,-678 189.5,-684 183.5,-684"/>
<text text-anchor="middle" x="150" y="-662.88" font-family="sans" font-size="10.00">SortAlignments</text>
</g>
<!-- 3&#45;&gt;16 -->
<g id="edge28" class="edge">
<title>3&#45;&gt;16</title>
<path fill="none" stroke="grey" stroke-width="2" d="M135.05,-719.34C136.95,-712.67 139.18,-704.89 141.32,-697.39"/>
<polygon fill="grey" stroke="grey" stroke-width="2" points="144.67,-698.39 144.05,-687.81 137.94,-696.47 144.67,-698.39"/>
</g>
<!-- 21 -->
<g id="node22" class="node">
<title>21</title>
<path fill="none" stroke="#56d882" stroke-width="2" stroke-dasharray="5,2" d="M225.88,-396C225.88,-396 170.12,-396 170.12,-396 164.12,-396 158.12,-390 158.12,-384 158.12,-384 158.12,-372 158.12,-372 158.12,-366 164.12,-360 170.12,-360 170.12,-360 225.88,-360 225.88,-360 231.88,-360 237.88,-366 237.88,-372 237.88,-372 237.88,-384 237.88,-384 237.88,-390 231.88,-396 225.88,-396"/>
<text text-anchor="middle" x="198" y="-374.88" font-family="sans" font-size="10.00">FilterRegions</text>
</g>
<!-- 3&#45;&gt;21 -->
<g id="edge33" class="edge">
<title>3&#45;&gt;21</title>
<path fill="none" stroke="grey" stroke-width="2" d="M95.57,-719.14C82.55,-710.44 69.16,-698.66 62,-684 54.98,-669.62 58.65,-663.65 62,-648 84.04,-545.1 105.96,-522.89 159,-432 163.85,-423.68 169.74,-415.1 175.45,-407.32"/>
<polygon fill="grey" stroke="grey" stroke-width="2" points="178.21,-409.48 181.45,-399.4 172.63,-405.25 178.21,-409.48"/>
</g>
<!-- 4&#45;&gt;0 -->
<g id="edge3" class="edge">
<title>4&#45;&gt;0</title>
<path fill="none" stroke="grey" stroke-width="2" d="M671.53,-723.07C715.33,-710.53 772.79,-692.77 780,-684 866.79,-578.44 819,-515.66 819,-379 819,-379 819,-379 819,-161 819,-90.85 584.72,-42.52 488.51,-25.63"/>
<polygon fill="grey" stroke="grey" stroke-width="2" points="489.32,-22.22 478.87,-23.97 488.13,-29.12 489.32,-22.22"/>
</g>
<!-- 18 -->
<g id="node19" class="node">
<title>18</title>
<path fill="none" stroke="#56d8d8" stroke-width="2" stroke-dasharray="5,2" d="M590.5,-684C590.5,-684 523.5,-684 523.5,-684 517.5,-684 511.5,-678 511.5,-672 511.5,-672 511.5,-660 511.5,-660 511.5,-654 517.5,-648 523.5,-648 523.5,-648 590.5,-648 590.5,-648 596.5,-648 602.5,-654 602.5,-660 602.5,-660 602.5,-672 602.5,-672 602.5,-678 596.5,-684 590.5,-684"/>
<text text-anchor="middle" x="557" y="-662.88" font-family="sans" font-size="10.00">SortAlignments</text>
</g>
<!-- 4&#45;&gt;18 -->
<g id="edge30" class="edge">
<title>4&#45;&gt;18</title>
<path fill="none" stroke="grey" stroke-width="2" d="M604.85,-719.34C597.93,-711.77 589.69,-702.75 582.01,-694.35"/>
<polygon fill="grey" stroke="grey" stroke-width="2" points="584.74,-692.15 575.41,-687.14 579.57,-696.88 584.74,-692.15"/>
</g>
<!-- 22 -->
<g id="node23" class="node">
<title>22</title>
<path fill="none" stroke="#56d882" stroke-width="2" stroke-dasharray="5,2" d="M544.88,-396C544.88,-396 489.12,-396 489.12,-396 483.12,-396 477.12,-390 477.12,-384 477.12,-384 477.12,-372 477.12,-372 477.12,-366 483.12,-360 489.12,-360 489.12,-360 544.88,-360 544.88,-360 550.88,-360 556.88,-366 556.88,-372 556.88,-372 556.88,-384 556.88,-384 556.88,-390 550.88,-396 544.88,-396"/>
<text text-anchor="middle" x="517" y="-374.88" font-family="sans" font-size="10.00">FilterRegions</text>
</g>
<!-- 4&#45;&gt;22 -->
<g id="edge36" class="edge">
<title>4&#45;&gt;22</title>
<path fill="none" stroke="grey" stroke-width="2" d="M631.71,-719.03C648.73,-690.07 680.6,-634.1 686,-612 689.8,-596.46 691.55,-591.01 686,-576 659.09,-503.3 592.03,-439.35 550.94,-405.22"/>
<polygon fill="grey" stroke="grey" stroke-width="2" points="553.15,-402.51 543.19,-398.91 548.73,-407.94 553.15,-402.51"/>
</g>
<!-- 5&#45;&gt;0 -->
<g id="edge4" class="edge">
<title>5&#45;&gt;0</title>
<path fill="none" stroke="grey" stroke-width="2" d="M785.28,-719.1C820.83,-695.53 875,-650.52 875,-595 875,-595 875,-595 875,-161 875,-90.98 809.8,-98.52 745,-72 657.98,-36.39 546.96,-24.66 488.39,-20.83"/>
<polygon fill="grey" stroke="grey" stroke-width="2" points="488.9,-17.35 478.71,-20.25 488.49,-24.34 488.9,-17.35"/>
</g>
<!-- 20 -->
<g id="node21" class="node">
<title>20</title>
<path fill="none" stroke="#56d8d8" stroke-width="2" stroke-dasharray="5,2" d="M758.5,-684C758.5,-684 691.5,-684 691.5,-684 685.5,-684 679.5,-678 679.5,-672 679.5,-672 679.5,-660 679.5,-660 679.5,-654 685.5,-648 691.5,-648 691.5,-648 758.5,-648 758.5,-648 764.5,-648 770.5,-654 770.5,-660 770.5,-660 770.5,-672 770.5,-672 770.5,-678 764.5,-684 758.5,-684"/>
<text text-anchor="middle" x="725" y="-662.88" font-family="sans" font-size="10.00">SortAlignments</text>
</g>
<!-- 5&#45;&gt;20 -->
<g id="edge32" class="edge">
<title>5&#45;&gt;20</title>
<path fill="none" stroke="grey" stroke-width="2" d="M747.43,-719.34C744.5,-712.51 741.07,-704.5 737.79,-696.83"/>
<polygon fill="grey" stroke="grey" stroke-width="2" points="741.02,-695.5 733.86,-687.68 734.59,-698.25 741.02,-695.5"/>
</g>
<!-- 23 -->
<g id="node24" class="node">
<title>23</title>
<path fill="none" stroke="#56d882" stroke-width="2" stroke-dasharray="5,2" d="M706.88,-396C706.88,-396 651.12,-396 651.12,-396 645.12,-396 639.12,-390 639.12,-384 639.12,-384 639.12,-372 639.12,-372 639.12,-366 645.12,-360 651.12,-360 651.12,-360 706.88,-360 706.88,-360 712.88,-360 718.88,-366 718.88,-372 718.88,-372 718.88,-384 718.88,-384 718.88,-390 712.88,-396 706.88,-396"/>
<text text-anchor="middle" x="679" y="-374.88" font-family="sans" font-size="10.00">FilterRegions</text>
</g>
<!-- 5&#45;&gt;23 -->
<g id="edge39" class="edge">
<title>5&#45;&gt;23</title>
<path fill="none" stroke="grey" stroke-width="2" d="M783.25,-719.07C794.75,-710.08 806.78,-698.1 813,-684 819.45,-669.36 815.66,-663.78 813,-648 796.1,-547.79 794.25,-516.64 738,-432 731.47,-422.17 722.69,-412.98 713.91,-405.1"/>
<polygon fill="grey" stroke="grey" stroke-width="2" points="716.31,-402.55 706.42,-398.76 711.79,-407.89 716.31,-402.55"/>
</g>
<!-- 6 -->
<g id="node7" class="node">
<title>6</title>
<path fill="none" stroke="#59d856" stroke-width="2" stroke-dasharray="5,2" d="M473.25,-108C473.25,-108 422.75,-108 422.75,-108 416.75,-108 410.75,-102 410.75,-96 410.75,-96 410.75,-84 410.75,-84 410.75,-78 416.75,-72 422.75,-72 422.75,-72 473.25,-72 473.25,-72 479.25,-72 485.25,-78 485.25,-84 485.25,-84 485.25,-96 485.25,-96 485.25,-102 479.25,-108 473.25,-108"/>
<text text-anchor="middle" x="448" y="-86.88" font-family="sans" font-size="10.00">CallVariants</text>
</g>
<!-- 6&#45;&gt;0 -->
<g id="edge5" class="edge">
<title>6&#45;&gt;0</title>
<path fill="none" stroke="grey" stroke-width="2" d="M448,-71.34C448,-64.75 448,-57.08 448,-49.67"/>
<polygon fill="grey" stroke="grey" stroke-width="2" points="451.5,-49.93 448,-39.93 444.5,-49.93 451.5,-49.93"/>
</g>
<!-- 7 -->
<g id="node8" class="node">
<title>7</title>
<path fill="none" stroke="#d88556" stroke-width="2" stroke-dasharray="5,2" d="M474.75,-180C474.75,-180 421.25,-180 421.25,-180 415.25,-180 409.25,-174 409.25,-168 409.25,-168 409.25,-156 409.25,-156 409.25,-150 415.25,-144 421.25,-144 421.25,-144 474.75,-144 474.75,-144 480.75,-144 486.75,-150 486.75,-156 486.75,-156 486.75,-168 486.75,-168 486.75,-174 480.75,-180 474.75,-180"/>
<text text-anchor="middle" x="448" y="-158.88" font-family="sans" font-size="10.00">AlignContigs</text>
</g>
<!-- 7&#45;&gt;6 -->
<g id="edge10" class="edge">
<title>7&#45;&gt;6</title>
<path fill="none" stroke="grey" stroke-width="2" d="M448,-143.34C448,-136.75 448,-129.08 448,-121.67"/>
<polygon fill="grey" stroke="grey" stroke-width="2" points="451.5,-121.93 448,-111.93 444.5,-121.93 451.5,-121.93"/>
</g>
<!-- 8 -->
<g id="node9" class="node">
<title>8</title>
<path fill="none" stroke="#d6d856" stroke-width="2" stroke-dasharray="5,2" d="M486.38,-252C486.38,-252 409.62,-252 409.62,-252 403.62,-252 397.62,-246 397.62,-240 397.62,-240 397.62,-228 397.62,-228 397.62,-222 403.62,-216 409.62,-216 409.62,-216 486.38,-216 486.38,-216 492.38,-216 498.38,-222 498.38,-228 498.38,-228 498.38,-240 498.38,-240 498.38,-246 492.38,-252 486.38,-252"/>
<text text-anchor="middle" x="448" y="-230.88" font-family="sans" font-size="10.00">AssembleContigs</text>
</g>
<!-- 8&#45;&gt;7 -->
<g id="edge11" class="edge">
<title>8&#45;&gt;7</title>
<path fill="none" stroke="grey" stroke-width="2" d="M448,-215.34C448,-208.75 448,-201.08 448,-193.67"/>
<polygon fill="grey" stroke="grey" stroke-width="2" points="451.5,-193.93 448,-183.93 444.5,-193.93 451.5,-193.93"/>
</g>
<!-- 9 -->
<g id="node10" class="node">
<title>9</title>
<path fill="none" stroke="#d85656" stroke-width="2" stroke-dasharray="5,2" d="M502.5,-324C502.5,-324 393.5,-324 393.5,-324 387.5,-324 381.5,-318 381.5,-312 381.5,-312 381.5,-300 381.5,-300 381.5,-294 387.5,-288 393.5,-288 393.5,-288 502.5,-288 502.5,-288 508.5,-288 514.5,-294 514.5,-300 514.5,-300 514.5,-312 514.5,-312 514.5,-318 508.5,-324 502.5,-324"/>
<text text-anchor="middle" x="448" y="-302.88" font-family="sans" font-size="10.00">AggregateFilteredReads</text>
</g>
<!-- 9&#45;&gt;8 -->
<g id="edge12" class="edge">
<title>9&#45;&gt;8</title>
<path fill="none" stroke="grey" stroke-width="2" d="M448,-287.34C448,-280.75 448,-273.08 448,-265.67"/>
<polygon fill="grey" stroke="grey" stroke-width="2" points="451.5,-265.93 448,-255.93 444.5,-265.93 451.5,-265.93"/>
</g>
<!-- 10&#45;&gt;9 -->
<g id="edge13" class="edge">
<title>10&#45;&gt;9</title>
<path fill="none" stroke="grey" stroke-width="2" d="M396.41,-359.34C403.95,-351.69 412.95,-342.56 421.31,-334.08"/>
<polygon fill="grey" stroke="grey" stroke-width="2" points="423.7,-336.64 428.23,-327.06 418.72,-331.72 423.7,-336.64"/>
</g>
<!-- 11&#45;&gt;10 -->
<g id="edge18" class="edge">
<title>11&#45;&gt;10</title>
<path fill="none" stroke="grey" stroke-width="2" d="M329.18,-647.15C325.67,-637.01 321.77,-623.98 320,-612 317.66,-596.17 317.94,-591.87 320,-576 328.52,-510.36 337.33,-494.88 358,-432 360.5,-424.41 363.5,-416.34 366.46,-408.84"/>
<polygon fill="grey" stroke="grey" stroke-width="2" points="369.62,-410.34 370.13,-399.76 363.13,-407.72 369.62,-410.34"/>
</g>
<!-- 14 -->
<g id="node15" class="node">
<title>14</title>
<path fill="none" stroke="#80d856" stroke-width="2" stroke-dasharray="5,2" d="M407.5,-612C407.5,-612 340.5,-612 340.5,-612 334.5,-612 328.5,-606 328.5,-600 328.5,-600 328.5,-588 328.5,-588 328.5,-582 334.5,-576 340.5,-576 340.5,-576 407.5,-576 407.5,-576 413.5,-576 419.5,-582 419.5,-588 419.5,-588 419.5,-600 419.5,-600 419.5,-606 413.5,-612 407.5,-612"/>
<text text-anchor="middle" x="374" y="-590.88" font-family="sans" font-size="10.00">CalculateDepth</text>
</g>
<!-- 11&#45;&gt;14 -->
<g id="edge26" class="edge">
<title>11&#45;&gt;14</title>
<path fill="none" stroke="grey" stroke-width="2" d="M345.59,-647.34C349.39,-640.34 353.85,-632.12 358.11,-624.28"/>
<polygon fill="grey" stroke="grey" stroke-width="2" points="361.14,-626.02 362.84,-615.56 354.99,-622.68 361.14,-626.02"/>
</g>
<!-- 12 -->
<g id="node13" class="node">
<title>12</title>
<path fill="none" stroke="#56d8a9" stroke-width="2" stroke-dasharray="5,2" d="M479,-468C479,-468 379,-468 379,-468 373,-468 367,-462 367,-456 367,-456 367,-444 367,-444 367,-438 373,-432 379,-432 379,-432 479,-432 479,-432 485,-432 491,-438 491,-444 491,-444 491,-456 491,-456 491,-462 485,-468 479,-468"/>
<text text-anchor="middle" x="429" y="-446.88" font-family="sans" font-size="10.00">FindRegionsOfInterest</text>
</g>
<!-- 12&#45;&gt;10 -->
<g id="edge19" class="edge">
<title>12&#45;&gt;10</title>
<path fill="none" stroke="grey" stroke-width="2" d="M416.38,-431.34C411.21,-424.1 405.09,-415.53 399.32,-407.45"/>
<polygon fill="grey" stroke="grey" stroke-width="2" points="402.21,-405.47 393.55,-399.37 396.51,-409.54 402.21,-405.47"/>
</g>
<!-- 12&#45;&gt;21 -->
<g id="edge35" class="edge">
<title>12&#45;&gt;21</title>
<path fill="none" stroke="grey" stroke-width="2" d="M369.81,-431.06C333.1,-419.94 286.34,-405.77 250.88,-395.02"/>
<polygon fill="grey" stroke="grey" stroke-width="2" points="252.32,-391.8 241.73,-392.25 250.29,-398.5 252.32,-391.8"/>
</g>
<!-- 12&#45;&gt;22 -->
<g id="edge38" class="edge">
<title>12&#45;&gt;22</title>
<path fill="none" stroke="grey" stroke-width="2" d="M451.21,-431.34C461.24,-423.36 473.29,-413.77 484.33,-404.99"/>
<polygon fill="grey" stroke="grey" stroke-width="2" points="486.48,-407.75 492.13,-398.79 482.12,-402.27 486.48,-407.75"/>
</g>
<!-- 12&#45;&gt;23 -->
<g id="edge41" class="edge">
<title>12&#45;&gt;23</title>
<path fill="none" stroke="grey" stroke-width="2" d="M491.76,-431.43C533.05,-419.87 586.49,-404.9 625.7,-393.92"/>
<polygon fill="grey" stroke="grey" stroke-width="2" points="626.56,-397.32 635.25,-391.25 624.67,-390.58 626.56,-397.32"/>
</g>
<!-- 13 -->
<g id="node14" class="node">
<title>13</title>
<path fill="none" stroke="#56a9d8" stroke-width="2" stroke-dasharray="5,2" d="M450.5,-540C450.5,-540 407.5,-540 407.5,-540 401.5,-540 395.5,-534 395.5,-528 395.5,-528 395.5,-516 395.5,-516 395.5,-510 401.5,-504 407.5,-504 407.5,-504 450.5,-504 450.5,-504 456.5,-504 462.5,-510 462.5,-516 462.5,-516 462.5,-528 462.5,-528 462.5,-534 456.5,-540 450.5,-540"/>
<text text-anchor="middle" x="429" y="-518.88" font-family="sans" font-size="10.00">SumDepth</text>
</g>
<!-- 13&#45;&gt;12 -->
<g id="edge21" class="edge">
<title>13&#45;&gt;12</title>
<path fill="none" stroke="grey" stroke-width="2" d="M429,-503.34C429,-496.75 429,-489.08 429,-481.67"/>
<polygon fill="grey" stroke="grey" stroke-width="2" points="432.5,-481.93 429,-471.93 425.5,-481.93 432.5,-481.93"/>
</g>
<!-- 14&#45;&gt;13 -->
<g id="edge22" class="edge">
<title>14&#45;&gt;13</title>
<path fill="none" stroke="grey" stroke-width="2" d="M387.88,-575.34C393.7,-567.93 400.6,-559.14 407.08,-550.9"/>
<polygon fill="grey" stroke="grey" stroke-width="2" points="409.64,-553.31 413.06,-543.28 404.13,-548.98 409.64,-553.31"/>
</g>
<!-- 15 -->
<g id="node16" class="node">
<title>15</title>
<path fill="none" stroke="#80d856" stroke-width="2" stroke-dasharray="5,2" d="M221.5,-612C221.5,-612 154.5,-612 154.5,-612 148.5,-612 142.5,-606 142.5,-600 142.5,-600 142.5,-588 142.5,-588 142.5,-582 148.5,-576 154.5,-576 154.5,-576 221.5,-576 221.5,-576 227.5,-576 233.5,-582 233.5,-588 233.5,-588 233.5,-600 233.5,-600 233.5,-606 227.5,-612 221.5,-612"/>
<text text-anchor="middle" x="188" y="-590.88" font-family="sans" font-size="10.00">CalculateDepth</text>
</g>
<!-- 15&#45;&gt;13 -->
<g id="edge23" class="edge">
<title>15&#45;&gt;13</title>
<path fill="none" stroke="grey" stroke-width="2" d="M234.47,-579.5C277.08,-567.13 339.85,-548.89 382.48,-536.51"/>
<polygon fill="grey" stroke="grey" stroke-width="2" points="383.21,-539.95 391.84,-533.79 381.26,-533.22 383.21,-539.95"/>
</g>
<!-- 16&#45;&gt;15 -->
<g id="edge27" class="edge">
<title>16&#45;&gt;15</title>
<path fill="none" stroke="grey" stroke-width="2" d="M159.59,-647.34C163.39,-640.34 167.85,-632.12 172.11,-624.28"/>
<polygon fill="grey" stroke="grey" stroke-width="2" points="175.14,-626.02 176.84,-615.56 168.99,-622.68 175.14,-626.02"/>
</g>
<!-- 16&#45;&gt;21 -->
<g id="edge34" class="edge">
<title>16&#45;&gt;21</title>
<path fill="none" stroke="grey" stroke-width="2" d="M143.18,-647.15C139.67,-637.01 135.77,-623.98 134,-612 131.66,-596.17 131.5,-591.8 134,-576 143.7,-514.73 169.39,-446.58 185.11,-408.65"/>
<polygon fill="grey" stroke="grey" stroke-width="2" points="188.19,-410.36 188.85,-399.78 181.74,-407.64 188.19,-410.36"/>
</g>
<!-- 17 -->
<g id="node18" class="node">
<title>17</title>
<path fill="none" stroke="#80d856" stroke-width="2" stroke-dasharray="5,2" d="M516.5,-612C516.5,-612 449.5,-612 449.5,-612 443.5,-612 437.5,-606 437.5,-600 437.5,-600 437.5,-588 437.5,-588 437.5,-582 443.5,-576 449.5,-576 449.5,-576 516.5,-576 516.5,-576 522.5,-576 528.5,-582 528.5,-588 528.5,-588 528.5,-600 528.5,-600 528.5,-606 522.5,-612 516.5,-612"/>
<text text-anchor="middle" x="483" y="-590.88" font-family="sans" font-size="10.00">CalculateDepth</text>
</g>
<!-- 17&#45;&gt;13 -->
<g id="edge24" class="edge">
<title>17&#45;&gt;13</title>
<path fill="none" stroke="grey" stroke-width="2" d="M469.37,-575.34C463.73,-568.01 457.03,-559.34 450.74,-551.18"/>
<polygon fill="grey" stroke="grey" stroke-width="2" points="453.54,-549.08 444.66,-543.3 448,-553.35 453.54,-549.08"/>
</g>
<!-- 18&#45;&gt;17 -->
<g id="edge29" class="edge">
<title>18&#45;&gt;17</title>
<path fill="none" stroke="grey" stroke-width="2" d="M538.33,-647.34C530.15,-639.6 520.38,-630.36 511.34,-621.81"/>
<polygon fill="grey" stroke="grey" stroke-width="2" points="513.79,-619.31 504.12,-614.98 508.98,-624.4 513.79,-619.31"/>
</g>
<!-- 18&#45;&gt;22 -->
<g id="edge37" class="edge">
<title>18&#45;&gt;22</title>
<path fill="none" stroke="grey" stroke-width="2" d="M554.5,-647.11C547.83,-599.46 529.6,-469.05 521.26,-409.45"/>
<polygon fill="grey" stroke="grey" stroke-width="2" points="524.77,-409.3 519.92,-399.88 517.84,-410.27 524.77,-409.3"/>
</g>
<!-- 19 -->
<g id="node20" class="node">
<title>19</title>
<path fill="none" stroke="#80d856" stroke-width="2" stroke-dasharray="5,2" d="M664.5,-612C664.5,-612 597.5,-612 597.5,-612 591.5,-612 585.5,-606 585.5,-600 585.5,-600 585.5,-588 585.5,-588 585.5,-582 591.5,-576 597.5,-576 597.5,-576 664.5,-576 664.5,-576 670.5,-576 676.5,-582 676.5,-588 676.5,-588 676.5,-600 676.5,-600 676.5,-606 670.5,-612 664.5,-612"/>
<text text-anchor="middle" x="631" y="-590.88" font-family="sans" font-size="10.00">CalculateDepth</text>
</g>
<!-- 19&#45;&gt;13 -->
<g id="edge25" class="edge">
<title>19&#45;&gt;13</title>
<path fill="none" stroke="grey" stroke-width="2" d="M584.66,-576.94C551.92,-565.59 508.21,-550.45 475.45,-539.09"/>
<polygon fill="grey" stroke="grey" stroke-width="2" points="476.92,-535.9 466.33,-535.94 474.63,-542.52 476.92,-535.9"/>
</g>
<!-- 20&#45;&gt;19 -->
<g id="edge31" class="edge">
<title>20&#45;&gt;19</title>
<path fill="none" stroke="grey" stroke-width="2" d="M701.28,-647.34C690.34,-639.19 677.16,-629.37 665.17,-620.45"/>
<polygon fill="grey" stroke="grey" stroke-width="2" points="667.58,-617.88 657.47,-614.71 663.4,-623.49 667.58,-617.88"/>
</g>
<!-- 20&#45;&gt;23 -->
<g id="edge40" class="edge">
<title>20&#45;&gt;23</title>
<path fill="none" stroke="grey" stroke-width="2" d="M728.14,-647.1C734.4,-607.14 745.63,-508.21 719,-432 715.9,-423.12 710.71,-414.52 705.09,-406.92"/>
<polygon fill="grey" stroke="grey" stroke-width="2" points="707.92,-404.86 698.91,-399.28 702.47,-409.26 707.92,-404.86"/>
</g>
<!-- 21&#45;&gt;9 -->
<g id="edge14" class="edge">
<title>21&#45;&gt;9</title>
<path fill="none" stroke="grey" stroke-width="2" d="M238.72,-365.6C274.56,-355.56 327.71,-340.68 371.47,-328.43"/>
<polygon fill="grey" stroke="grey" stroke-width="2" points="372.24,-331.85 380.92,-325.78 370.35,-325.11 372.24,-331.85"/>
</g>
<!-- 22&#45;&gt;9 -->
<g id="edge15" class="edge">
<title>22&#45;&gt;9</title>
<path fill="none" stroke="grey" stroke-width="2" d="M499.59,-359.34C492.05,-351.69 483.05,-342.56 474.69,-334.08"/>
<polygon fill="grey" stroke="grey" stroke-width="2" points="477.28,-331.72 467.77,-327.06 472.3,-336.64 477.28,-331.72"/>
</g>
<!-- 23&#45;&gt;9 -->
<g id="edge16" class="edge">
<title>23&#45;&gt;9</title>
<path fill="none" stroke="grey" stroke-width="2" d="M638.23,-364.65C605.39,-354.69 558.42,-340.46 519.37,-328.63"/>
<polygon fill="grey" stroke="grey" stroke-width="2" points="520.48,-325.31 509.9,-325.76 518.45,-332.01 520.48,-325.31"/>
</g>
</g>
</svg>
